<svg id="Layer_1" data-name="Layer 1" xmlns="http://www.w3.org/2000/svg" viewBox="0 0 275.77 395.57"><defs><style>.cls-1{fill:#231f20;}.cls-1,.cls-2{stroke:#231f20;stroke-miterlimit:10;}.cls-2{fill:none;}</style></defs><path class="cls-1" d="M137.91,395.07H125.66c1.29-26.38,3.34-68.77,2-94.22-.8-15.26-4-16.07-17.33-23.78C99.77,271,76.14,268.9,67.48,260.38c11.39,3.59,23,6.84,34.93,7.56-1-.9-1-2.46-1.3-3.77-1-3.64-5.26-5.22-7.81-8a41.28,41.28,0,0,0-3.1-3.72,10.9,10.9,0,0,0-3.63-1.91,27.81,27.81,0,0,0-22.7,2.22c-2.47,1.44-4.7,3.27-7.25,4.55-3.7,1.86-7.89,2.51-12,3.13a126.42,126.42,0,0,0,18.76-12.24,3.11,3.11,0,0,0,1.35-1.78,2.16,2.16,0,0,0-1.33-2.1,7.49,7.49,0,0,0-2.63-.49,38.42,38.42,0,0,1-18.69-6.51A7.13,7.13,0,0,0,39,235.8a6.79,6.79,0,0,0-2.66.43L26,239.45a114.5,114.5,0,0,1,12-5.61.63.63,0,0,0,.28-.19c.12-.2-.06-.45-.23-.61a20.69,20.69,0,0,0-13.08-5.68c2.5-.7,5.17.2,7.49,1.35s4.56,2.59,7.12,3.08c2,.37,2.36,2.2,3.79,3.61a11,11,0,0,0,4.64,2.28c11.21,3.44,22.72,6.91,34.43,6.2-2.9-2.83-7-4-10.71-5.69s-7.43-4.51-7.91-8.51c.26,2.4,2.78,3.76,4.93,4.92l5,2.71c1.94,1,4.39,2.06,6.2.82a4,4,0,0,0,1-4.76,10.36,10.36,0,0,0-3.52-3.87,54.22,54.22,0,0,0-40.24-10A26.74,26.74,0,0,0,42.35,218q-4.43-2.46-9.08-4.48c1.66-.53,3.36.52,4.88,1.38a27.86,27.86,0,0,0,9,3.26c4.81.85,9.94.94,14.68,2.09,1.09-2.42-.42-4.94-2.25-6.79-2.87-2.9-8.08-4.85-11.43-5.44a20.74,20.74,0,0,1,16.77,10.94,6.56,6.56,0,0,0,1,1.69,5.66,5.66,0,0,0,1.84,1.15c6.76,3.09,14.28,5.93,18.18,12.19a12.71,12.71,0,0,0-2.22-12.16c3.19,1.43,4.58,5.17,5,8.6s.24,7,1.66,10.19c2.52,5.64,1.32,5.32,5.8,9.61,1.34,1.28,7.71,6.17,9.17,7.33.94.75,6,7,6.88,7.79,3.94,3.39,10.94,9.83,15,13.11.75-3.58.44-13.91.44-17.56,0-3.2.44-8.44-1.56-11.33a35.22,35.22,0,0,0-4.44-5.11c-2-2.14-8.13-3.6-10.94-4.54-7.2-2.41-11.64-9.41-15.16-16.07a42.5,42.5,0,0,0,5,7.54c5.21,5.8,17.59,10.5,25.29,12a33.67,33.67,0,0,0-.89-8c-.57-2.31-5.55-5.37-7.17-7.14a28.29,28.29,0,0,0-2.73-2.51l-5-4.2c-1.39-1.18,1.81.73,2.52,1.49,1.84,1.94,11.82,5.08,13.92,8-.23-6.9-10.65-14.57-16.52-18.33a45.08,45.08,0,0,0-36.31-5.21,86.26,86.26,0,0,1,10.74-3.49c-18-7.85-39-7-57.71-.91,5.7-3.06,12.15-4.46,18.54-5.56-9.26.54-18.5-1.1-27.63-2.73-2.67-.48-5.93-1.54-6.26-4.2,0-.18,0-.41.17-.48s.32.26.14.27a9,9,0,0,0,9.65,3A9.3,9.3,0,0,0,17,185.06a14.69,14.69,0,0,0-9.44-2,12.87,12.87,0,0,1,8,.57c.44-1.22-.7-2.41-1.78-3.14a26.11,26.11,0,0,0-9.33-4,26.2,26.2,0,0,1,15.69,9.31c1.91,2.4,3.45,5.19,6,6.93a17.56,17.56,0,0,0,6.44,2.34,71.22,71.22,0,0,0,14.34,1.4c9.3,0,18.83-.66,28.06.49-6.73-7.52-17-10.7-26.74-13.56l-20.95-6.14a41.11,41.11,0,0,1,10.28,2.17,38.4,38.4,0,0,1-6.49-4.69,31,31,0,0,0,14.42,6.18c-3.47-5-8.41-8.72-13.26-12.39a35.56,35.56,0,0,0-8.35-5.17,45.61,45.61,0,0,0-8-1.88A83.91,83.91,0,0,1,.19,156.91a197,197,0,0,0,21.56,4.89,35.63,35.63,0,0,0-21.25-14,42.42,42.42,0,0,1,12.81,2.94L11,146.43a112.89,112.89,0,0,0,25.56,22.12c3,1.91,6.15,3.7,8.72,6.16,1.77,1.71,3.24,3.72,5.07,5.38,6.43,5.81,16,6.33,23.87,10.11,4.39,2.12,8.17,5.25,12.2,8s8.52,5.1,13.39,5.4a5.26,5.26,0,0,0,.82-4.35,11.22,11.22,0,0,0-2.32-3.74,2.25,2.25,0,0,1,1.66.88,10,10,0,0,1,2.79,6.75.86.86,0,0,0,.14.57.87.87,0,0,0,.28.19l8.1,3.84a45.06,45.06,0,0,1-4.25-8.4c-1.45-3.71-2.07-7.82-4.4-11.06-3.1-4.31-8.57-6.24-13.81-7.33s-10.72-1.66-15.4-4.23a68.24,68.24,0,0,0,21,3.8,69.16,69.16,0,0,1-23.45-10,140.66,140.66,0,0,0,29.61,10.39c-.44-2.4-2.44-4.16-4.32-5.74-4.16-3.47-8.41-7-13.45-9a51.93,51.93,0,0,0-9.48-2.52l-12.64-2.54a23,23,0,0,1-7.12-2.25,24.92,24.92,0,0,1-4.37-3.51c-4.32-4-9.21-7.76-15-8.78-3.34-.58-6.91-.24-9.95-1.71,2.1.2,4.44.09,6.55.29L18,135.77l4.68,3c3.56,2.25,7.2,4.53,11.32,5.46,2.91.65,6.09.65,8.57,2.28a19.45,19.45,0,0,1,2.89,2.63,31.43,31.43,0,0,0,16.87,8.71,99,99,0,0,0-8.77-11.92,19.93,19.93,0,0,0-5.32-4.76,45.76,45.76,0,0,0-5.2-2.07,22.42,22.42,0,0,1-10.07-7.91,35.48,35.48,0,0,0,9.16,5.57,9.42,9.42,0,0,0,5,1.14c1.72-.21,3.42-1.49,3.52-3.2A4.4,4.4,0,0,0,48.33,131c-1.26-.84-2.73-1.36-4-2.24a7.9,7.9,0,0,1-3.12-5,6.82,6.82,0,0,0,3.37,4c1.53.94,3.24,1.61,4.68,2.68a10.12,10.12,0,0,1,4,8.72,8.25,8.25,0,0,0,0,2.93A6,6,0,0,0,55,144.54l5.31,5.27c3.59,3.57,7.21,7.06,11.85,9.11a80.67,80.67,0,0,0,14.59,4.37,34.06,34.06,0,0,0,.49-8.12A11.55,11.55,0,0,0,84,147.86a27.78,27.78,0,0,0-3.47-2.5,44.48,44.48,0,0,1-8.24-8.21c-1.52-1.8-3.15-4-2.56-6.28-.12,2.58,1.85,4.73,3.69,6.56,3.72,3.7,7.66,7.53,12.72,9a16.42,16.42,0,0,0-4.89-11.09c.69,1.76,2.61,2.69,3.91,4.08,2.77,3,2.44,7.49,3.06,11.48.27,1.71.74,3.38,1,5.1a19.82,19.82,0,0,1-.52,8.18c6.22,1.94,12.15,6.09,15.15,11.81.91,1.72,1.6,3.54,2.57,5.22,2,3.44,5,6.22,6.78,9.75,2.56,5.09,11.16,22,15.95,25.18a40.79,40.79,0,0,0,.3-11c-.19-1.59.34-9,.15-10.59-.45-3.59,1.11-4.22-1.56-12.81-.51-1.64-4-6.92-4.67-8.52-2.77-7.18-10-11.06-15.42-16.56-2.91-2.94-6.53-5.41-8.2-9.17l7.56,6.72c6.15,5.47,17,12.86,21.25,19.23,1.11-1.33-1.82-7.82-3.05-12.53-.93-3.54-7.18-8.43-9-11.6a52.82,52.82,0,0,0-5.54-7.31c-2.32-2.72-4.64-5.44-7.2-7.94a60.63,60.63,0,0,0-35.64-16.72c-12-1.27-24.59,1-36.13-2.63a148.33,148.33,0,0,1,17.89.41c-7.26-5.42-17.14-6.73-26-4.65a27.83,27.83,0,0,1-6,1.12,6.32,6.32,0,0,1-5.37-2.41c3.54,2.35,8.24,1.51,12.39.58l5.82-1.31c-1.71-2.69-4.88-3.72-8-4.38s-6.56-1.24-8.85-3.48c4.6,1,9.16,2.19,13.65,3.56a17.4,17.4,0,0,1,3.85,1.54c1.83,1.09,3.65,2.93,5.72,2.37a13.94,13.94,0,0,0-6.38-9.21,38,38,0,0,1-4.55-2.65c-1.36-1.11-2.38-2.9-1.87-4.57A5.93,5.93,0,0,0,27.1,96.1a17.94,17.94,0,0,0,5.26,2,23.08,23.08,0,0,0-.84-10.66,11.82,11.82,0,0,1,2.74,7.13A16.12,16.12,0,0,0,34.52,99a9.71,9.71,0,0,0,1.4,2.54l3.87,5.62c-.53,1,1,1.57,2.11,1.9L51.47,112l-2.83-8.75a12.09,12.09,0,0,0-1.57-3.49c-1.43-2-4-3-5-5.19a44.85,44.85,0,0,0,4.55,3.2c.6-2.21-.53-4.48-1.62-6.49L42.08,86a10.5,10.5,0,0,0-2.29-3.17,30.83,30.83,0,0,0-3-1.81,3.53,3.53,0,0,1-1.88-2.8,21.51,21.51,0,0,1,10.61,8.52c2.84,4.38,3.83,9.63,5.6,14.53s4.75,9.86,9.7,11.64a22,22,0,0,0,6.32,1l9.76.57c-1.24-6.12-2.54-13-7.09-17.28C65.52,93.07,59,91.41,55.87,86.44a14,14,0,0,0,6.87,4.23,20.62,20.62,0,0,1-2.57-8.89,12.62,12.62,0,0,0,9.67,11.59A74.89,74.89,0,0,1,66,79,26,26,0,0,1,55,72.92a21.44,21.44,0,0,0-4-3.35,13,13,0,0,0-6-1.27,10.3,10.3,0,0,1,6.84.38,17,17,0,0,0-7-9.43,19.19,19.19,0,0,1,7.91,7.16,49.7,49.7,0,0,0,2.87,4.84C58.1,74.41,62,76,65.81,77.39A28.29,28.29,0,0,1,71.3,62.58a24.69,24.69,0,0,0-3.56,14.75c.53,6.77,3.82,13,7.22,18.89,3.65,6.33,7.57,12.76,8.62,20,5.73,1,11,4.78,15.57,8.32-.19-4.56-1-9.42-3.4-13.33-1.47-2.43-3.33-4.64-4.47-7.24-2.81-6.49,1.19-12.1-1.51-18.64-1.64-4-6.72-9.19-9.88-12.13l5.33,4a22.67,22.67,0,0,0-1-10.87c2.4,2.59,2,6.61,3.1,10s3.91,6.16,5,9.6c1.7,5.26-.78,11.2,1.05,16.42.84,2.4,2.51,4.4,4,6.46,3.55,4.87,6.35,11,4.73,16.76A32.29,32.29,0,0,1,114,134.78a57.79,57.79,0,0,0-5.27-17.11c-2.43-5-5.65-9.94-5.43-15.45,0,3.64,2,6.94,3.92,10.06,3.22,5.28,6.34,10.69,8.19,16.58,1.49,4.74,2.38,10.14,6.33,13.21.6.47,7.18,6.71,7.75,7.23,1.77-3.3,1-9.24,1.87-12.89.71-3.13.08-11.46,0-14.67s-1.06-5.55-2.09-8.67c-2.14-6.42-9.66-9.78-14.79-14.26s-10.35-9.72-11.32-16.42c4.72,10.7,19.18,19.35,28.88,26,.13-7.21-6.88-16-12.17-21a40,40,0,0,1-3.75-3.61,43.45,43.45,0,0,1-2.67-4.13c-3.48-5.4-9.39-9.58-10.53-15.88a14.19,14.19,0,0,0,7.49,7.9q-1.55-4.81-3.18-9.6a7.23,7.23,0,0,0-1-2.05,7.58,7.58,0,0,0-2.71-2L81.18,46.4a15.37,15.37,0,0,1,7.4,2.88A13.36,13.36,0,0,0,83.07,41c3.68,2.39,5.84,6.46,9,9.48,3.9,3.69,9.13,5.63,14.21,7.47a8.58,8.58,0,0,0-1.52-5.38c-5.29-6.94-11.91-14-11.84-23a28.66,28.66,0,0,0,12.48,21,24.84,24.84,0,0,0-.46-17c1.46,1.87,1.2,4.14,1.93,6.2,1.75,5,.32,10.47,1.27,15.64,1,5.68,4.9,10.49,6.46,16a35.24,35.24,0,0,0,1.14,4c1,2.51,3.07,4.46,5,6.34a3,3,0,0,0,1-2.42l1.05-12.09a25.75,25.75,0,0,0,.09-5.48c-.45-3.5-4.73-8.45-5.34-11.65.39,2,3.5,5.31,4.83,6.9,2.28,2.7,2.89,6.44,2.75,10s-1,7-1.21,10.48a13.91,13.91,0,0,0,.67,5.95c.72,1.87,6.27,5.71,8.22,6.28,1.84-7.54,0-17.31,0-25.06S131,48.85,126.16,42.7c-2.3-3-5.22-5.43-7.3-8.55-1.46-2.18-2.49-4.66-4.19-6.67-1.94-2.31-4.89-4.36-4.83-7.36l3.69,4.28a6.45,6.45,0,0,0,2.06,1.8c1.84.86,4.17-.25,5.18-2a8.44,8.44,0,0,0,.6-5.88c-.39-2-1.11-3.89-1.38-5.89a15.08,15.08,0,0,1,2.89,8,7.36,7.36,0,0,1-1,4.61c-1,1.5-3,2.68-2.81,4.49a4,4,0,0,0,.7,1.67c2.34,3.71,5.65,6.71,8.62,10s6,7.78,6.83,12.09A24.51,24.51,0,0,0,136.39,50c1.05-2.57-.74-3.82.1-7.12.3-1.16-.35-4.09-.22-5.28a22.49,22.49,0,0,0,0-4.78,57.17,57.17,0,0,1,.15-7.63c.27-2.79-.8-5.46-1.78-8.09a31.31,31.31,0,0,0-2.71-5.77,29.15,29.15,0,0,1-2.69-5.57l-.46-1.69c2.2,4.06,5.57,12,9.13,15,3.55-3,6.92-10.89,9.13-14.95l-.47,1.69a29.15,29.15,0,0,1-2.69,5.57,30.63,30.63,0,0,0-2.7,5.77c-1,2.63-2.06,5.3-1.79,8.09a55.54,55.54,0,0,1,.15,7.63,22.49,22.49,0,0,0,0,4.78c.13,1.19-.52,4.12-.22,5.28.84,3.3-.95,4.55.1,7.12a26,26,0,0,0,1.19,3.27c.78-4.31,3.86-8.84,6.83-12.09S153.68,35,156,31.26a4.23,4.23,0,0,0,.7-1.67c.18-1.81-1.78-3-2.82-4.49a7.36,7.36,0,0,1-1-4.61,15.08,15.08,0,0,1,2.89-8c-.27,2-1,3.91-1.38,5.89a8.44,8.44,0,0,0,.6,5.88c1,1.74,3.34,2.85,5.18,2a6.45,6.45,0,0,0,2.06-1.8l3.69-4.28c.06,3-2.89,5.05-4.83,7.36-1.7,2-2.73,4.49-4.19,6.67-2.08,3.12-5,5.6-7.3,8.55-4.79,6.15-6.7,14.11-6.73,21.87s-1.83,17.52,0,25.06c2-.57,7.5-4.41,8.23-6.28a14.07,14.07,0,0,0,.66-5.95c-.24-3.51-1.06-7-1.2-10.48s.47-7.25,2.74-10c1.33-1.59,4.44-4.87,4.83-6.9-.61,3.2-4.88,8.15-5.34,11.65a25.75,25.75,0,0,0,.09,5.48l1,12.09a3,3,0,0,0,1,2.42c2-1.88,4-3.83,5-6.34a35.24,35.24,0,0,0,1.14-4c1.56-5.56,5.41-10.37,6.46-16,1-5.17-.48-10.68,1.27-15.64.73-2.06.47-4.33,1.93-6.2a24.84,24.84,0,0,0-.45,17,28.65,28.65,0,0,0,12.47-21c.07,9-6.55,16.05-11.84,23A8.51,8.51,0,0,0,169.48,58c5.07-1.84,10.3-3.78,14.2-7.47,3.18-3,5.34-7.09,9-9.48a13.36,13.36,0,0,0-5.51,8.28,15.37,15.37,0,0,1,7.4-2.88L172.26,58.06a7.53,7.53,0,0,0-2.72,2,7.52,7.52,0,0,0-.95,2.05q-1.64,4.78-3.18,9.6a14.16,14.16,0,0,0,7.49-7.9c-1.14,6.3-7.05,10.48-10.53,15.88a43.45,43.45,0,0,1-2.67,4.13A38.78,38.78,0,0,1,156,87.41c-5.29,5-12.3,13.79-12.17,21,9.7-6.67,24.16-15.32,28.88-26-1,6.7-6.19,11.93-11.32,16.42s-12.65,7.84-14.78,14.26c-1,3.12-2,5.4-2.1,8.67s-.71,11.54,0,14.67c.83,3.65.1,9.59,1.87,12.89.57-.52,7.15-6.76,7.75-7.23,3.95-3.07,4.85-8.47,6.33-13.21,1.85-5.89,5-11.3,8.19-16.58,1.9-3.12,3.91-6.42,3.93-10.06.22,5.51-3,10.48-5.44,15.45a57.79,57.79,0,0,0-5.27,17.11,32.29,32.29,0,0,1,11.81-9.28c-1.62-5.78,1.18-11.89,4.73-16.76,1.5-2.06,3.18-4.06,4-6.46,1.83-5.22-.66-11.16,1-16.42,1.1-3.44,3.87-6.17,5-9.6s.7-7.36,3.1-10a22.67,22.67,0,0,0-1,10.87l5.32-4c-3.16,2.94-8.24,8.16-9.88,12.13-2.7,6.54,1.31,12.15-1.51,18.64-1.13,2.6-3,4.81-4.47,7.24-2.38,3.91-3.2,8.77-3.39,13.33,4.57-3.54,9.84-7.36,15.56-8.32,1.05-7.21,5-13.64,8.62-20,3.4-5.9,6.69-12.12,7.22-18.89a24.62,24.62,0,0,0-3.56-14.75A28.29,28.29,0,0,1,210,77.39c3.77-1.4,7.71-3,10.16-6.14A49.7,49.7,0,0,0,223,66.41a19.19,19.19,0,0,1,7.91-7.16,17,17,0,0,0-7,9.43,10.3,10.3,0,0,1,6.84-.38,13,13,0,0,0-6,1.27,20.81,20.81,0,0,0-4,3.35A26.07,26.07,0,0,1,209.74,79a74.89,74.89,0,0,1-3.81,14.36,12.61,12.61,0,0,0,9.67-11.59A20.62,20.62,0,0,1,213,90.67a14,14,0,0,0,6.87-4.23c-3.12,5-9.64,6.63-13.9,10.69-4.54,4.33-5.84,11.16-7.09,17.28l9.76-.57a22.13,22.13,0,0,0,6.33-1c4.94-1.78,7.93-6.75,9.69-11.64s2.76-10.15,5.6-14.53a21.55,21.55,0,0,1,10.61-8.52A3.53,3.53,0,0,1,239,81a30.83,30.83,0,0,0-3,1.81A10.5,10.5,0,0,0,233.69,86l-2.89,5.32c-1.09,2-2.22,4.28-1.62,6.49a44.85,44.85,0,0,0,4.55-3.2c-1,2.18-3.6,3.24-5,5.19a11.81,11.81,0,0,0-1.56,3.49L224.3,112l9.57-2.94c1.08-.33,2.65-.91,2.12-1.9l3.87-5.62a9.71,9.71,0,0,0,1.4-2.54,16.93,16.93,0,0,0,.26-4.45,11.75,11.75,0,0,1,2.73-7.13,23.08,23.08,0,0,0-.84,10.66,17.94,17.94,0,0,0,5.26-2,5.9,5.9,0,0,0,2.92-4.54c.51,1.67-.51,3.46-1.87,4.57a38,38,0,0,1-4.55,2.65A13.89,13.89,0,0,0,238.8,108c2.06.56,3.89-1.28,5.72-2.37a17.13,17.13,0,0,1,3.84-1.54q6.75-2.06,13.65-3.56c-2.29,2.24-5.7,2.83-8.85,3.48s-6.33,1.69-8,4.38l5.82,1.31c4.15.93,8.85,1.77,12.39-.58a6.31,6.31,0,0,1-5.37,2.41,27.74,27.74,0,0,1-6-1.12c-8.85-2.08-18.74-.77-26,4.65a148.33,148.33,0,0,1,17.89-.41c-11.54,3.67-24.08,1.36-36.13,2.63A60.63,60.63,0,0,0,172.05,134c-2.56,2.5-4.88,5.22-7.2,7.94a52.82,52.82,0,0,0-5.54,7.31c-1.85,3.17-8.11,8.06-9,11.6-1.23,4.71-4.16,11.2-3.05,12.53,4.3-6.37,15.1-13.76,21.25-19.23l7.56-6.72c-1.67,3.76-5.29,6.23-8.19,9.17-5.45,5.5-12.65,9.38-15.43,16.56-.62,1.6-4.16,6.88-4.67,8.52-2.67,8.59-1.11,9.22-1.55,12.81-.2,1.59.33,9,.14,10.59a41.2,41.2,0,0,0,.3,11c4.79-3.14,13.39-20.09,16-25.18,1.78-3.53,4.81-6.31,6.78-9.75,1-1.68,1.67-3.5,2.57-5.22,3-5.72,8.93-9.87,15.15-11.81a19.82,19.82,0,0,1-.52-8.18c.25-1.72.72-3.39,1-5.1.63-4,.29-8.53,3.06-11.48,1.31-1.39,3.23-2.32,3.91-4.08a16.42,16.42,0,0,0-4.89,11.09c5.06-1.44,9-5.27,12.72-9,1.84-1.83,3.81-4,3.69-6.56.59,2.28-1,4.48-2.56,6.28a44.18,44.18,0,0,1-8.24,8.21,28.54,28.54,0,0,0-3.47,2.5,11.55,11.55,0,0,0-3.24,7.31,34.06,34.06,0,0,0,.49,8.12,80.43,80.43,0,0,0,14.59-4.37c4.65-2,8.26-5.54,11.85-9.11l5.32-5.27a6,6,0,0,0,1.72-2.41,8.49,8.49,0,0,0,0-2.93,10.09,10.09,0,0,1,4-8.72c1.44-1.07,3.15-1.74,4.69-2.68a6.83,6.83,0,0,0,3.36-4,7.9,7.9,0,0,1-3.12,5c-1.23.88-2.7,1.4-4,2.24a4.4,4.4,0,0,0-2.28,3.68c.11,1.71,1.8,3,3.53,3.2a9.41,9.41,0,0,0,5-1.14,35.48,35.48,0,0,0,9.16-5.57,22.42,22.42,0,0,1-10.07,7.91,45.76,45.76,0,0,0-5.2,2.07,19.93,19.93,0,0,0-5.32,4.76,97.89,97.89,0,0,0-8.76,11.92,31.44,31.44,0,0,0,16.86-8.71,19.45,19.45,0,0,1,2.89-2.63c2.48-1.63,5.66-1.63,8.57-2.28,4.12-.93,7.77-3.21,11.32-5.46l4.68-3-12.76,9.34c2.1-.2,4.44-.09,6.55-.29-3,1.47-6.62,1.13-10,1.71-5.82,1-10.71,4.81-15,8.78a24.92,24.92,0,0,1-4.37,3.51,23,23,0,0,1-7.12,2.25l-12.64,2.54a52.15,52.15,0,0,0-9.48,2.52c-5,2-9.29,5.56-13.45,9-1.88,1.58-3.88,3.34-4.31,5.74a140.78,140.78,0,0,0,29.6-10.39,69.16,69.16,0,0,1-23.45,10,68.24,68.24,0,0,0,21-3.8c-4.68,2.57-10.17,3.13-15.4,4.23s-10.71,3-13.81,7.33c-2.32,3.24-3,7.35-4.4,11.06a45.63,45.63,0,0,1-4.24,8.4l8.09-3.84a.77.77,0,0,0,.28-.19.86.86,0,0,0,.14-.57,10,10,0,0,1,2.79-6.75,2.27,2.27,0,0,1,1.67-.88,11.09,11.09,0,0,0-2.33,3.74,5.26,5.26,0,0,0,.82,4.35c4.87-.3,9.36-2.68,13.39-5.4s7.82-5.84,12.2-8c7.83-3.78,17.44-4.3,23.87-10.11,1.83-1.66,3.3-3.67,5.07-5.38,2.57-2.46,5.7-4.25,8.72-6.16a113.15,113.15,0,0,0,25.57-22.12l-2.33,4.28a42.42,42.42,0,0,1,12.81-2.94,35.63,35.63,0,0,0-21.25,14,197.2,197.2,0,0,0,21.57-4.89,84.24,84.24,0,0,1-15.65,4.55,45.61,45.61,0,0,0-8,1.88,35.56,35.56,0,0,0-8.35,5.17c-4.85,3.67-9.79,7.42-13.26,12.39a31,31,0,0,0,14.42-6.18,38.4,38.4,0,0,1-6.49,4.69,41.11,41.11,0,0,1,10.28-2.17l-20.94,6.14c-9.74,2.86-20,6-26.75,13.56,9.23-1.15,18.76-.53,28.07-.49a71.12,71.12,0,0,0,14.33-1.4,17.5,17.5,0,0,0,6.44-2.34c2.54-1.74,4.08-4.53,6-6.93a26.2,26.2,0,0,1,15.69-9.31,26.11,26.11,0,0,0-9.33,4c-1.08.73-2.22,1.92-1.78,3.14a12.88,12.88,0,0,1,8-.57,14.69,14.69,0,0,0-9.44,2,9.3,9.3,0,0,0-4.34,8.23,9,9,0,0,0,9.65-3c-.18,0,0-.34.14-.27s.19.3.17.48c-.33,2.66-3.59,3.72-6.26,4.2-9.13,1.63-18.37,3.27-27.63,2.73,6.39,1.1,12.84,2.5,18.54,5.56-18.69-6.08-39.7-6.94-57.71.91a85.72,85.72,0,0,1,10.74,3.49,45.08,45.08,0,0,0-36.31,5.21c-5.87,3.76-16.29,11.43-16.52,18.33,2.1-2.9,12.09-6,13.92-8,.71-.76,3.92-2.67,2.52-1.49l-5,4.2a28.29,28.29,0,0,0-2.73,2.51c-1.61,1.77-6.6,4.83-7.17,7.14a34.19,34.19,0,0,0-.89,8c7.71-1.46,20.09-6.16,25.29-12a42,42,0,0,0,5-7.54c-3.52,6.66-8,13.66-15.16,16.07-2.81.94-8.91,2.4-10.94,4.54a35.84,35.84,0,0,0-4.44,5.11c-2,2.89-1.55,8.13-1.56,11.33,0,3.65-.31,14,.45,17.56,4-3.28,11-9.72,15-13.11.91-.79,5.95-7,6.88-7.79,1.46-1.16,7.83-6,9.17-7.33,4.48-4.29,3.28-4,5.81-9.61,1.41-3.16,1.22-6.76,1.65-10.19s1.81-7.17,5-8.6a12.71,12.71,0,0,0-2.22,12.16c3.9-6.26,11.42-9.1,18.18-12.19a5.81,5.81,0,0,0,1.85-1.15,6.81,6.81,0,0,0,1-1.69A20.74,20.74,0,0,1,227.65,208c-3.34.59-8.56,2.54-11.43,5.44-1.83,1.85-3.34,4.37-2.25,6.79,4.74-1.15,9.87-1.24,14.68-2.09a28,28,0,0,0,9-3.26c1.51-.86,3.21-1.91,4.88-1.38-3.1,1.35-6.14,2.84-9.09,4.48a26.74,26.74,0,0,0,5.16,1.51,54.2,54.2,0,0,0-40.23,10,10.19,10.19,0,0,0-3.52,3.87,3.94,3.94,0,0,0,1,4.76c1.81,1.24,4.26.22,6.2-.82l5-2.71c2.16-1.16,4.68-2.52,4.93-4.92-.48,4-4.21,6.81-7.91,8.51s-7.81,2.86-10.71,5.69c11.71.71,23.22-2.76,34.43-6.2a10.93,10.93,0,0,0,4.64-2.28c1.44-1.41,1.81-3.24,3.8-3.61,2.55-.49,4.79-1.93,7.11-3.08s5-2.05,7.49-1.35A20.69,20.69,0,0,0,237.79,233c-.17.16-.35.41-.22.61a.6.6,0,0,0,.27.19,113.55,113.55,0,0,1,12,5.61l-10.4-3.22a6.76,6.76,0,0,0-2.66-.43,7.13,7.13,0,0,0-3.08,1.49A38.35,38.35,0,0,1,215,243.8a7.43,7.43,0,0,0-2.62.49,2.15,2.15,0,0,0-1.34,2.1,3.11,3.11,0,0,0,1.35,1.78,126.42,126.42,0,0,0,18.76,12.24c-4.1-.62-8.29-1.27-12-3.13-2.55-1.28-4.78-3.11-7.25-4.55a27.81,27.81,0,0,0-22.7-2.22,10.75,10.75,0,0,0-3.62,1.91,39.78,39.78,0,0,0-3.11,3.72c-2.55,2.81-6.83,4.39-7.81,8-.35,1.31-.28,2.87-1.3,3.77,11.94-.72,23.54-4,34.93-7.56C199.63,268.9,176,271,165.45,277.07c-13.37,7.71-16.54,8.52-17.34,23.78-1.33,25.45.71,67.84,2,94.22H137.86"/><path class="cls-2" d="M151.78,77.4a14.07,14.07,0,0,1-.66,5.95"/></svg>